<?xml version="1.0" standalone="no"?>
<!DOCTYPE svg PUBLIC "-//W3C//DTD SVG 20010904//EN"
 "http://www.w3.org/TR/2001/REC-SVG-20010904/DTD/svg10.dtd">
<svg version="1.0" xmlns="http://www.w3.org/2000/svg"
 width="780.000000pt" height="780.000000pt" viewBox="0 0 780.000000 780.000000"
 preserveAspectRatio="xMidYMid meet">
<metadata>
Created by potrace 1.11, written by Peter Selinger 2001-2013
</metadata>
<g transform="translate(0.000000,780.000000) scale(0.100000,-0.100000)"
fill="#000000" stroke="none">
<path d="M4248 7473 c-21 -2 -38 -8 -38 -13 0 -4 -10 -8 -22 -8 -29 1 -96 -9
-195 -27 -71 -14 -101 -19 -158 -30 -11 -2 -42 -6 -70 -10 -27 -4 -97 -15
-155 -26 -58 -11 -114 -22 -125 -24 -11 -2 -41 -6 -67 -10 -26 -3 -82 -12
-125 -20 -71 -14 -101 -19 -158 -30 -11 -2 -41 -6 -67 -10 -26 -3 -82 -13
-125 -21 -102 -19 -115 -21 -136 -23 -11 0 -15 -6 -11 -12 4 -8 0 -7 -15 1
-17 9 -32 8 -72 -5 -165 -55 -314 -277 -359 -535 -5 -30 -32 -1184 -59 -2565
-28 -1380 -53 -2643 -57 -2805 -6 -271 -4 -303 14 -391 36 -172 106 -283 219
-342 190 -99 590 -279 633 -284 167 -20 353 153 434 402 43 134 46 171 61 835
49 2167 44 2026 64 2027 20 2 897 151 931 159 15 3 0 -11 -39 -37 -283 -189
-384 -757 -187 -1051 78 -116 173 -161 293 -140 250 43 490 179 724 412 198
195 333 386 470 660 246 492 372 1042 373 1625 0 477 -88 902 -260 1256 -171
351 -382 573 -679 714 -665 314 -690 324 -890 330 -60 1 -127 1 -147 -2z m396
-302 c-182 -105 -314 -389 -314 -678 0 -287 138 -520 318 -537 24 -2 47 -7 52
-12 22 -23 91 -178 114 -255 202 -698 -136 -1576 -655 -1704 -99 -24 -509 -92
-514 -85 -2 3 5 427 16 941 35 1615 35 1680 10 1779 -29 116 -73 200 -137 260
-57 54 -105 79 -151 81 -17 0 -22 3 -13 7 12 4 1277 227 1315 231 6 0 -13 -12
-41 -28z"/>
</g>
</svg>
